<?xml version="1.0" encoding="UTF-8" standalone="no"?>
<svg
   xmlns:osb="http://www.openswatchbook.org/uri/2009/osb"
   xmlns:dc="http://purl.org/dc/elements/1.1/"
   xmlns:cc="http://creativecommons.org/ns#"
   xmlns:rdf="http://www.w3.org/1999/02/22-rdf-syntax-ns#"
   xmlns:svg="http://www.w3.org/2000/svg"
   xmlns="http://www.w3.org/2000/svg"
   xmlns:sodipodi="http://sodipodi.sourceforge.net/DTD/sodipodi-0.dtd"
   xmlns:inkscape="http://www.inkscape.org/namespaces/inkscape"
   width="152.19917mm"
   height="112.76442mm"
   viewBox="0 0 152.19917 112.76442"
   version="1.1"
   id="svg8"
   inkscape:version="1.0.2 (e86c870879, 2021-01-15, custom)"
   sodipodi:docname="stroembom_beg.svg">
  <defs
     id="defs2">
    <inkscape:path-effect
       effect="bspline"
       id="path-effect959"
       is_visible="true"
       lpeversion="1"
       weight="33.333333"
       steps="2"
       helper_size="0"
       apply_no_weight="true"
       apply_with_weight="true"
       only_selected="false" />
    <inkscape:path-effect
       effect="bspline"
       id="path-effect931"
       is_visible="true"
       lpeversion="1"
       weight="33.333333"
       steps="2"
       helper_size="0"
       apply_no_weight="true"
       apply_with_weight="true"
       only_selected="false" />
    <rect
       x="134.37054"
       y="65.578873"
       width="14.363095"
       height="13.229163"
       id="rect1118" />
    <inkscape:path-effect
       effect="bspline"
       id="path-effect1106"
       is_visible="true"
       lpeversion="1"
       weight="33.333333"
       steps="2"
       helper_size="0"
       apply_no_weight="true"
       apply_with_weight="true"
       only_selected="false" />
    <inkscape:path-effect
       effect="bspline"
       id="path-effect1098"
       is_visible="true"
       lpeversion="1"
       weight="33.333333"
       steps="2"
       helper_size="0"
       apply_no_weight="true"
       apply_with_weight="true"
       only_selected="false" />
    <inkscape:path-effect
       effect="bspline"
       id="path-effect1094"
       is_visible="true"
       lpeversion="1"
       weight="33.333333"
       steps="2"
       helper_size="0"
       apply_no_weight="true"
       apply_with_weight="true"
       only_selected="false" />
    <linearGradient
       id="linearGradient1070"
       osb:paint="solid">
      <stop
         style="stop-color:#840080;stop-opacity:0.01176471;"
         offset="0"
         id="stop1068" />
    </linearGradient>
    <inkscape:path-effect
       effect="skeletal"
       id="path-effect221"
       is_visible="true"
       lpeversion="1"
       pattern="M 0,5 C 0,2.24 2.24,0 5,0 7.76,0 10,2.24 10,5 10,7.76 7.76,10 5,10 2.24,10 0,7.76 0,5 Z"
       copytype="single_stretched"
       prop_scale="1"
       scale_y_rel="false"
       spacing="0"
       normal_offset="0"
       tang_offset="0"
       prop_units="false"
       vertical_pattern="false"
       hide_knot="false"
       fuse_tolerance="0" />
    <inkscape:path-effect
       effect="powerstroke"
       id="path-effect215"
       is_visible="true"
       lpeversion="1"
       offset_points="6,0.1322915"
       sort_points="true"
       interpolator_type="CubicBezierJohan"
       interpolator_beta="0.2"
       start_linecap_type="zerowidth"
       linejoin_type="extrp_arc"
       miter_limit="4"
       scale_width="1"
       end_linecap_type="zerowidth" />
    <inkscape:path-effect
       effect="powerstroke"
       id="path-effect209"
       is_visible="true"
       lpeversion="1"
       offset_points="0,0.1322915"
       sort_points="true"
       interpolator_type="CubicBezierJohan"
       interpolator_beta="0.2"
       start_linecap_type="zerowidth"
       linejoin_type="extrp_arc"
       miter_limit="4"
       scale_width="1"
       end_linecap_type="zerowidth" />
    <inkscape:path-effect
       effect="skeletal"
       id="path-effect203"
       is_visible="true"
       lpeversion="1"
       pattern="M 0,5 C 0,2.24 2.24,0 5,0 7.76,0 10,2.24 10,5 10,7.76 7.76,10 5,10 2.24,10 0,7.76 0,5 Z"
       copytype="single_stretched"
       prop_scale="1"
       scale_y_rel="false"
       spacing="0"
       normal_offset="0"
       tang_offset="0"
       prop_units="false"
       vertical_pattern="false"
       hide_knot="false"
       fuse_tolerance="0" />
  </defs>
  <sodipodi:namedview
     id="base"
     pagecolor="#ffffff"
     bordercolor="#666666"
     borderopacity="1.0"
     inkscape:pageopacity="0.0"
     inkscape:pageshadow="2"
     inkscape:zoom="0.98994949"
     inkscape:cx="129.31969"
     inkscape:cy="310.36707"
     inkscape:document-units="mm"
     inkscape:current-layer="layer1"
     inkscape:document-rotation="0"
     showgrid="false"
     inkscape:snap-text-baseline="true"
     inkscape:window-width="1920"
     inkscape:window-height="1017"
     inkscape:window-x="-8"
     inkscape:window-y="-8"
     inkscape:window-maximized="1"
     inkscape:snap-object-midpoints="true"
     showguides="false">
    <inkscape:grid
       type="xygrid"
       id="grid239"
       originx="-33.765113"
       originy="-27.906479" />
  </sodipodi:namedview>
  <metadata
     id="metadata5">
    <rdf:RDF>
      <cc:Work
         rdf:about="">
        <dc:format>image/svg+xml</dc:format>
        <dc:type
           rdf:resource="http://purl.org/dc/dcmitype/StillImage" />
        <dc:title></dc:title>
      </cc:Work>
    </rdf:RDF>
  </metadata>
  <g
     inkscape:label="Plast 1"
     inkscape:groupmode="layer"
     id="layer1"
     transform="translate(-33.765114,-27.906479)">
    <path
       sodipodi:type="star"
       style="fill:#ffe6d5;fill-opacity:0.573529;stroke:#d48100;stroke-width:0.565;stroke-miterlimit:4;stroke-dasharray:none;stroke-opacity:1"
       id="path1088"
       sodipodi:sides="300"
       sodipodi:cx="91.287999"
       sodipodi:cy="84.422812"
       sodipodi:r1="56.25119"
       sodipodi:r2="56.248104"
       sodipodi:arg1="0.85196633"
       sodipodi:arg2="0.8624383"
       inkscape:flatsided="true"
       inkscape:rounded="0"
       inkscape:randomized="0"
       d="m 128.32967,126.75615 -0.89469,0.76645 -0.91054,0.74756 -0.926,0.72832 -0.94105,0.70876 -0.95568,0.68891 -0.9699,0.66874 -0.9837,0.64828 -0.99705,0.62753 -1.00998,0.60652 -1.02246,0.58524 -1.03449,0.56369 -1.04607,0.54191 -1.05719,0.51987 -1.06784,0.49763 -1.07803,0.47515 -1.08775,0.45247 -1.09698,0.42959 -1.10574,0.40653 -1.11401,0.38328 -1.12179,0.35986 -1.12909,0.33629 -1.13587,0.31258 -1.14218,0.28871 -1.14797,0.26474 -1.15326,0.24063 -1.15805,0.21643 -1.162332,0.19213 -1.166097,0.16774 -1.169354,0.14329 -1.172099,0.11877 -1.174329,0.0942 -1.176044,0.0696 -1.177244,0.0449 -1.177926,0.0203 -1.178092,-0.004 -1.177742,-0.0291 -1.176875,-0.0537 -1.175491,-0.0784 -1.173593,-0.10296 -1.171178,-0.12752 -1.168251,-0.15203 -1.164811,-0.17645 -1.160861,-0.20081 -1.1564,-0.22507 -1.151433,-0.24925 -1.145961,-0.2733 -1.139986,-0.29725 -1.133511,-0.32105 -1.126538,-0.34472 -1.119073,-0.36824 -1.111115,-0.39159 -1.10267,-0.41477 -1.093742,-0.43778 -1.084335,-0.46059 -1.07445,-0.48319 -1.064096,-0.50559 -1.053274,-0.52777 -1.04199,-0.5497 -1.03025,-0.57141 -1.018057,-0.59286 -1.005418,-0.61405 -0.992338,-0.63497 -0.978822,-0.65561 -0.964878,-0.67597 -0.950509,-0.69602 -0.935725,-0.71578 -0.920529,-0.73522 -0.90493,-0.75434 -0.888934,-0.77312 -0.872548,-0.79157 -0.855779,-0.80967 -0.838635,-0.82741 -0.821123,-0.8448 -0.803251,-0.8618 -0.785027,-0.87844 -0.766458,-0.89469 -0.747552,-0.91054 -0.72832,-0.926 -0.708768,-0.94104 -0.688904,-0.95569 -0.668739,-0.9699 -0.64828,-0.98369 -0.627537,-0.99706 -0.606519,-1.00998 -0.585234,-1.02245 -0.563693,-1.0345 -0.541905,-1.04606 -0.519878,-1.05719 -0.497625,-1.06785 -0.475152,-1.07803 -0.452471,-1.08774 -0.429592,-1.09699 -0.406525,-1.10574 -0.383278,-1.11401 -0.359864,-1.12179 -0.336293,-1.129082 -0.312573,-1.135878 -0.288716,-1.142176 -0.264733,-1.147971 -0.240633,-1.153263 -0.216429,-1.15805 -0.192129,-1.162329 -0.167745,-1.166097 -0.143287,-1.169354 -0.118766,-1.172099 -0.09419,-1.174329 -0.06958,-1.176044 -0.04494,-1.177244 -0.02027,-1.177926 0.0044,-1.178092 0.02907,-1.177742 0.05373,-1.176875 0.07837,-1.175491 0.102966,-1.173593 0.127522,-1.171178 0.152021,-1.168251 0.176454,-1.164811 0.200809,-1.160861 0.225077,-1.1564 0.249244,-1.151433 0.273304,-1.145961 0.297243,-1.139986 0.321052,-1.133511 0.34472,-1.126538 0.368237,-1.119073 0.391592,-1.111115 0.414776,-1.10267 0.437778,-1.093742 0.460587,-1.084335 0.483194,-1.07445 0.50559,-1.064096 0.527764,-1.053274 0.549707,-1.04199 0.571407,-1.03025 0.592859,-1.018057 0.614048,-1.005418 0.63497,-0.992338 0.655613,-0.978822 0.675968,-0.964878 0.696026,-0.950509 0.71578,-0.935725 0.735219,-0.920529 0.754336,-0.90493 0.773122,-0.888934 0.791569,-0.872548 0.809668,-0.855779 0.827413,-0.838635 0.844795,-0.821123 0.861806,-0.803251 0.878438,-0.785027 0.894687,-0.766458 0.910541,-0.747552 0.925998,-0.72832 0.941047,-0.708768 0.955684,-0.688904 0.969902,-0.668739 0.983694,-0.64828 0.997055,-0.627537 1.009978,-0.606519 1.022459,-0.585234 1.034491,-0.563693 1.046069,-0.541905 1.057188,-0.519878 1.067844,-0.497625 1.078031,-0.475152 1.087746,-0.452471 1.096983,-0.429592 1.105739,-0.406525 1.11401,-0.383278 1.121793,-0.359864 1.129083,-0.336293 1.135878,-0.312573 1.142176,-0.288716 1.147971,-0.264733 1.153263,-0.240633 1.15805,-0.216429 1.162329,-0.192129 1.166097,-0.167745 1.169354,-0.143287 1.172099,-0.118766 1.174329,-0.09419 1.176044,-0.06958 1.177244,-0.04494 1.177926,-0.02027 1.178092,0.0044 1.177742,0.02907 1.176875,0.05373 1.175491,0.07837 1.173593,0.102966 1.171178,0.127522 1.168251,0.152021 1.164815,0.176454 1.16086,0.200809 1.1564,0.225077 1.15143,0.249244 1.14596,0.273304 1.13999,0.297243 1.13351,0.321052 1.12654,0.34472 1.11907,0.368237 1.11111,0.391592 1.10267,0.414776 1.09375,0.437778 1.08433,0.460587 1.07445,0.483194 1.0641,0.50559 1.05327,0.527764 1.04199,0.549707 1.03025,0.571407 1.01806,0.592859 1.00542,0.614048 0.99233,0.63497 0.97883,0.655613 0.96487,0.675968 0.95051,0.696026 0.93573,0.71578 0.92053,0.735219 0.90493,0.754336 0.88893,0.773122 0.87255,0.791569 0.85578,0.809668 0.83863,0.827413 0.82113,0.844795 0.80325,0.861806 0.78502,0.878438 0.76646,0.894687 0.74755,0.910541 0.72832,0.925998 0.70877,0.941047 0.68891,0.955684 0.66873,0.969902 0.64828,0.983694 0.62754,0.997055 0.60652,1.009978 0.58523,1.022459 0.5637,1.034491 0.5419,1.046069 0.51988,1.057188 0.49763,1.067844 0.47515,1.078031 0.45247,1.087746 0.42959,1.096983 0.40653,1.105739 0.38327,1.11401 0.35987,1.121793 0.33629,1.129083 0.31257,1.135878 0.28872,1.142176 0.26473,1.147971 0.24064,1.153263 0.21643,1.15805 0.19212,1.162329 0.16775,1.166097 0.14329,1.169354 0.11876,1.172099 0.0942,1.174329 0.0696,1.176044 0.0449,1.177244 0.0203,1.177926 -0.004,1.178092 -0.0291,1.177742 -0.0537,1.176875 -0.0784,1.175491 -0.10297,1.173593 -0.12752,1.171178 -0.15202,1.168251 -0.17645,1.164811 -0.20081,1.160861 -0.22508,1.1564 -0.24924,1.151433 -0.27331,1.145961 -0.29724,1.139986 -0.32105,1.13351 -0.34472,1.12654 -0.36824,1.11907 -0.39159,1.11112 -0.41478,1.10267 -0.43777,1.09374 -0.46059,1.08433 -0.4832,1.07445 -0.50559,1.0641 -0.52776,1.05327 -0.54971,1.04199 -0.5714,1.03025 -0.59286,1.01806 -0.61405,1.00542 -0.63497,0.99234 -0.65561,0.97882 -0.67597,0.96488 -0.69603,0.95051 -0.71578,0.93572 -0.73522,0.92053 -0.75433,0.90493 -0.77312,0.88893 -0.79157,0.87255 -0.80967,0.85578 -0.82741,0.83864 -0.8448,0.82112 -0.8618,0.80325 z"
       inkscape:transform-center-y="-1.7333333e-06" />
    <path
       style="fill:none;stroke:#000000;stroke-width:0.29282px;stroke-linecap:butt;stroke-linejoin:miter;stroke-opacity:1"
       d="m 91.28125,84.302124 c 7.494464,14.114511 14.98897,28.229096 19.29821,36.521556 4.30925,8.29245 5.43318,10.76264 6.55715,13.23294"
       id="path1092"
       inkscape:path-effect="#path-effect1094"
       inkscape:original-d="m 91.28125,84.302124 c 7.4941,14.114704 14.9886,28.229296 22.48352,42.343776 1.12356,2.4704 2.24749,4.94059 3.37184,7.41072" />
    <path
       style="fill:none;stroke:#000000;stroke-width:0.431665px;stroke-linecap:butt;stroke-linejoin:miter;stroke-opacity:1"
       d="M 91.275677,84.374622 C 74.59564,87.442208 57.915785,90.50976 41.23608,93.577284"
       id="path1104"
       inkscape:path-effect="#path-effect1106"
       inkscape:original-d="M 91.275677,84.374622 C 74.595535,87.441637 57.91568,90.509191 41.23608,93.577284" />
    <text
       xml:space="preserve"
       id="text1116"
       style="font-style:normal;font-weight:normal;font-size:10.5833px;line-height:1.25;font-family:sans-serif;white-space:pre;shape-inside:url(#rect1118);fill:#000000;fill-opacity:1;stroke:none;" />
    <text
       xml:space="preserve"
       style="font-style:italic;font-variant:normal;font-weight:normal;font-stretch:normal;font-size:10.5833px;line-height:1.25;font-family:Caladea;-inkscape-font-specification:'Caladea, Italic';font-variant-ligatures:normal;font-variant-caps:normal;font-variant-numeric:normal;font-variant-east-asian:normal;fill:#000000;fill-opacity:1;stroke:none;stroke-width:0.264583"
       x="111.93142"
       y="117.90115"
       id="text1124"><tspan
         sodipodi:role="line"
         id="tspan1128"
         x="111.93142"
         y="117.90115">r</tspan></text>
    <text
       xml:space="preserve"
       style="font-style:italic;font-variant:normal;font-weight:normal;font-stretch:normal;font-size:5.29167px;line-height:1.25;font-family:Caladea;-inkscape-font-specification:'Caladea, Italic';font-variant-ligatures:normal;font-variant-caps:normal;font-variant-numeric:normal;font-variant-east-asian:normal;fill:#000000;fill-opacity:1;stroke:none;stroke-width:0.264583"
       x="113.7268"
       y="120.31075"
       id="text1132"><tspan
         sodipodi:role="line"
         id="tspan1130"
         x="113.7268"
         y="120.31075"
         style="font-style:italic;font-variant:normal;font-weight:normal;font-stretch:normal;font-size:5.29167px;font-family:Caladea;-inkscape-font-specification:'Caladea, Italic';font-variant-ligatures:normal;font-variant-caps:normal;font-variant-numeric:normal;font-variant-east-asian:normal;stroke-width:0.264583">s</tspan></text>
    <text
       xml:space="preserve"
       style="font-style:italic;font-variant:normal;font-weight:normal;font-stretch:normal;font-size:10.5833px;line-height:1.25;font-family:Caladea;-inkscape-font-specification:'Caladea, Italic';font-variant-ligatures:normal;font-variant-caps:normal;font-variant-numeric:normal;font-variant-east-asian:normal;fill:#000000;fill-opacity:1;stroke:none;stroke-width:0.264583"
       x="47.814072"
       y="89.466393"
       id="text1136"><tspan
         sodipodi:role="line"
         id="tspan1134"
         x="47.814072"
         y="89.466393"
         style="font-style:italic;font-variant:normal;font-weight:normal;font-stretch:normal;font-size:10.5833px;font-family:Caladea;-inkscape-font-specification:'Caladea, Italic';font-variant-ligatures:normal;font-variant-caps:normal;font-variant-numeric:normal;font-variant-east-asian:normal;stroke-width:0.264583">R</tspan></text>
    <path
       sodipodi:type="star"
       style="fill:#05001f;fill-opacity:0.791165;stroke:#030000;stroke-width:0.264999;stroke-miterlimit:4;stroke-dasharray:none;stroke-opacity:1"
       id="path1138"
       sodipodi:sides="3"
       sodipodi:cx="119.45022"
       sodipodi:cy="77.16391"
       sodipodi:r1="1.9808993"
       sodipodi:r2="0.99044967"
       sodipodi:arg1="-0.32032476"
       sodipodi:arg2="0.72687279"
       inkscape:flatsided="true"
       inkscape:rounded="0"
       inkscape:randomized="0"
       d="m 121.33036,76.540175 -2.28004,2.563849 -1.08034,-3.256493 z"
       inkscape:transform-center-x="0.29364848"
       inkscape:transform-center-y="-0.28411278"
       transform="matrix(-1.4685327,0,0,-0.91099429,216.65261,163.87316)" />
    <text
       xml:space="preserve"
       style="font-style:italic;font-variant:normal;font-weight:normal;font-stretch:normal;font-size:9.21911px;line-height:1.25;font-family:Caladea;-inkscape-font-specification:'Caladea, Italic';font-variant-ligatures:normal;font-variant-caps:normal;font-variant-numeric:normal;font-variant-east-asian:normal;fill:#000000;fill-opacity:1;stroke:none;stroke-width:0.460955"
       x="47.252316"
       y="102.35249"
       id="text1132-1"
       transform="scale(1.1440328,0.87410081)"><tspan
         sodipodi:role="line"
         id="tspan1130-6"
         x="47.252316"
         y="102.35249"
         style="font-style:italic;font-variant:normal;font-weight:normal;font-stretch:normal;font-size:9.21911px;font-family:Caladea;-inkscape-font-specification:'Caladea, Italic';font-variant-ligatures:normal;font-variant-caps:normal;font-variant-numeric:normal;font-variant-east-asian:normal;stroke-width:0.460955">s</tspan></text>
    <path
       style="fill:#4d4d4d;stroke:#000201;stroke-width:0.346559px;stroke-linecap:butt;stroke-linejoin:miter;stroke-opacity:1;opacity:0.98992443"
       d="M 91.287999,84.422812 C 78.084712,81.151577 64.881439,77.880345 51.678156,74.609111"
       id="path1104-0"
       inkscape:path-effect="#path-effect931"
       inkscape:original-d="M 91.287999,84.422812 C 78.084823,81.151129 64.881551,77.879895 51.678156,74.609111" />
    <path
       sodipodi:type="star"
       style="fill:#4d4d4d;fill-opacity:0.791165;stroke:#000201;stroke-width:0.264999;stroke-miterlimit:4;stroke-dasharray:none;stroke-opacity:1;opacity:0.98992443"
       id="path1138-1"
       sodipodi:sides="3"
       sodipodi:cx="119.45022"
       sodipodi:cy="77.16391"
       sodipodi:r1="1.9808993"
       sodipodi:r2="0.99044967"
       sodipodi:arg1="-0.32032476"
       sodipodi:arg2="0.72687279"
       inkscape:flatsided="true"
       inkscape:rounded="0"
       inkscape:randomized="0"
       inkscape:transform-center-x="0.41912893"
       inkscape:transform-center-y="0.25026299"
       transform="matrix(-1.0133985,-0.47099418,0.50275693,-0.61723925,136.15305,178.9986)"
       d="m 121.33036,76.540175 -2.28004,2.563849 -1.08034,-3.256493 z" />
    <path
       style="fill:#4d4d4d;stroke:#000201;stroke-width:0.4;stroke-linecap:butt;stroke-linejoin:miter;stroke-opacity:1;stroke-miterlimit:4;stroke-dasharray:none;opacity:0.98992443"
       d="M 91.28125,84.302124 C 86.046953,91.170725 80.812681,98.039294 75.578426,104.90784"
       id="path1104-0-4"
       inkscape:path-effect="#path-effect959"
       inkscape:original-d="M 91.28125,84.302124 C 86.046711,91.170541 80.812438,98.039109 75.578426,104.90784" />
    <path
       sodipodi:type="star"
       style="fill:#4d4d4d;fill-opacity:0.791165;stroke:#000201;stroke-width:0.6657387;stroke-miterlimit:4;stroke-dasharray:none;stroke-opacity:1;opacity:0.98992443"
       id="path1138-1-8"
       sodipodi:sides="3"
       sodipodi:cx="119.45022"
       sodipodi:cy="77.16391"
       sodipodi:r1="1.9808993"
       sodipodi:r2="0.99044967"
       sodipodi:arg1="-0.32032476"
       sodipodi:arg2="0.72687279"
       inkscape:flatsided="true"
       inkscape:rounded="0"
       inkscape:randomized="0"
       inkscape:transform-center-x="-0.16181159"
       inkscape:transform-center-y="0.081205055"
       transform="matrix(-0.5435042,0.48096486,-0.2788458,-0.41745632,162.86488,78.504382)"
       d="m 121.33036,76.540175 -2.28004,2.563849 -1.08034,-3.256493 z" />
    <path
       style="opacity:0.989924;fill:#ff8080;fill-opacity:1;stroke:#a30e16;stroke-width:0.502173;stroke-linejoin:round;stroke-miterlimit:4;stroke-dasharray:none;stroke-opacity:0.58529413;paint-order:fill markers stroke"
       d="m 113.27687,51.481194 c -1.63001,-0.798734 -3.11591,-2.67768 -3.50023,-4.42615 -0.64462,-2.932552 1.06942,-6.200014 3.77434,-7.194982 1.34469,-0.494624 3.79879,-0.431 4.90509,0.127165 1.93654,0.977051 3.72859,3.744712 3.72859,5.758488 0,2.126939 -1.93479,4.976613 -3.93153,5.790599 -1.43527,0.585091 -3.72142,0.559768 -4.97626,-0.05512 z"
       id="path963" />
    <path
       style="opacity:0.989924;fill:#ff8080;fill-opacity:1;stroke:#a30e16;stroke-width:0.502173;stroke-linejoin:round;stroke-miterlimit:4;stroke-dasharray:none;stroke-opacity:0.585294;paint-order:fill markers stroke"
       d="m 110.77628,97.784565 c -1.63001,-0.798734 -3.11591,-2.67768 -3.50023,-4.42615 -0.64462,-2.932552 1.06942,-6.200014 3.77434,-7.194982 1.34469,-0.494624 3.79879,-0.431 4.90509,0.127165 1.93654,0.977051 3.72859,3.744712 3.72859,5.758488 0,2.126939 -1.93479,4.976613 -3.93153,5.790599 -1.43527,0.585091 -3.72142,0.559768 -4.97626,-0.05512 z"
       id="path963-8" />
    <path
       style="opacity:0.989924;fill:#ff8080;fill-opacity:1;stroke:#a30e16;stroke-width:0.502173;stroke-linejoin:round;stroke-miterlimit:4;stroke-dasharray:none;stroke-opacity:0.585294;paint-order:fill markers stroke"
       d="m 167.17014,128.78783 c -1.63001,-0.79874 -3.11591,-2.67768 -3.50023,-4.42615 -0.64462,-2.93256 1.06942,-6.20002 3.77434,-7.19499 1.34469,-0.49462 3.79879,-0.431 4.90509,0.12717 1.93654,0.97705 3.72859,3.74471 3.72859,5.75849 0,2.12694 -1.93479,4.97661 -3.93153,5.7906 -1.43527,0.58509 -3.72142,0.55976 -4.97626,-0.0551 z"
       id="path963-5" />
    <ellipse
       style="fill:#55b0ff;fill-opacity:1;stroke:#0b49cf;stroke-width:0.365;stroke-miterlimit:4;stroke-dasharray:none;stroke-opacity:1"
       id="path84-5"
       cx="91.28125"
       cy="84.302124"
       rx="5.2916675"
       ry="5.4806557" />
  </g>
</svg>
