<?xml version="1.0" encoding="UTF-8" standalone="no"?>
<svg
   xmlns:osb="http://www.openswatchbook.org/uri/2009/osb"
   xmlns:dc="http://purl.org/dc/elements/1.1/"
   xmlns:cc="http://creativecommons.org/ns#"
   xmlns:rdf="http://www.w3.org/1999/02/22-rdf-syntax-ns#"
   xmlns:svg="http://www.w3.org/2000/svg"
   xmlns="http://www.w3.org/2000/svg"
   xmlns:xlink="http://www.w3.org/1999/xlink"
   xmlns:sodipodi="http://sodipodi.sourceforge.net/DTD/sodipodi-0.dtd"
   xmlns:inkscape="http://www.inkscape.org/namespaces/inkscape"
   width="152.19917mm"
   height="112.76442mm"
   viewBox="0 0 152.19917 112.76442"
   version="1.1"
   id="svg8"
   inkscape:version="1.0.2 (e86c870879, 2021-01-15, custom)"
   sodipodi:docname="stroembom_odboj.svg">
  <defs
     id="defs2">
    <rect
       x="134.37054"
       y="65.578873"
       width="14.363095"
       height="13.229163"
       id="rect1118" />
    <inkscape:path-effect
       effect="bspline"
       id="path-effect1106"
       is_visible="true"
       lpeversion="1"
       weight="33.333333"
       steps="2"
       helper_size="0"
       apply_no_weight="true"
       apply_with_weight="true"
       only_selected="false" />
    <inkscape:path-effect
       effect="bspline"
       id="path-effect1098"
       is_visible="true"
       lpeversion="1"
       weight="33.333333"
       steps="2"
       helper_size="0"
       apply_no_weight="true"
       apply_with_weight="true"
       only_selected="false" />
    <inkscape:path-effect
       effect="bspline"
       id="path-effect1094"
       is_visible="true"
       lpeversion="1"
       weight="33.333333"
       steps="2"
       helper_size="0"
       apply_no_weight="true"
       apply_with_weight="true"
       only_selected="false" />
    <linearGradient
       id="linearGradient1070"
       osb:paint="solid">
      <stop
         style="stop-color:#840080;stop-opacity:0.01176471;"
         offset="0"
         id="stop1068" />
    </linearGradient>
    <inkscape:path-effect
       effect="skeletal"
       id="path-effect221"
       is_visible="true"
       lpeversion="1"
       pattern="M 0,5 C 0,2.24 2.24,0 5,0 7.76,0 10,2.24 10,5 10,7.76 7.76,10 5,10 2.24,10 0,7.76 0,5 Z"
       copytype="single_stretched"
       prop_scale="1"
       scale_y_rel="false"
       spacing="0"
       normal_offset="0"
       tang_offset="0"
       prop_units="false"
       vertical_pattern="false"
       hide_knot="false"
       fuse_tolerance="0" />
    <inkscape:path-effect
       effect="powerstroke"
       id="path-effect215"
       is_visible="true"
       lpeversion="1"
       offset_points="6,0.1322915"
       sort_points="true"
       interpolator_type="CubicBezierJohan"
       interpolator_beta="0.2"
       start_linecap_type="zerowidth"
       linejoin_type="extrp_arc"
       miter_limit="4"
       scale_width="1"
       end_linecap_type="zerowidth" />
    <inkscape:path-effect
       effect="powerstroke"
       id="path-effect209"
       is_visible="true"
       lpeversion="1"
       offset_points="0,0.1322915"
       sort_points="true"
       interpolator_type="CubicBezierJohan"
       interpolator_beta="0.2"
       start_linecap_type="zerowidth"
       linejoin_type="extrp_arc"
       miter_limit="4"
       scale_width="1"
       end_linecap_type="zerowidth" />
    <inkscape:path-effect
       effect="skeletal"
       id="path-effect203"
       is_visible="true"
       lpeversion="1"
       pattern="M 0,5 C 0,2.24 2.24,0 5,0 7.76,0 10,2.24 10,5 10,7.76 7.76,10 5,10 2.24,10 0,7.76 0,5 Z"
       copytype="single_stretched"
       prop_scale="1"
       scale_y_rel="false"
       spacing="0"
       normal_offset="0"
       tang_offset="0"
       prop_units="false"
       vertical_pattern="false"
       hide_knot="false"
       fuse_tolerance="0" />
  </defs>
  <sodipodi:namedview
     id="base"
     pagecolor="#ffffff"
     bordercolor="#666666"
     borderopacity="1.0"
     inkscape:pageopacity="0.0"
     inkscape:pageshadow="2"
     inkscape:zoom="0.98994949"
     inkscape:cx="352.05833"
     inkscape:cy="310.36707"
     inkscape:document-units="mm"
     inkscape:current-layer="layer1"
     inkscape:document-rotation="0"
     showgrid="false"
     inkscape:snap-text-baseline="true"
     inkscape:window-width="1115"
     inkscape:window-height="1017"
     inkscape:window-x="789"
     inkscape:window-y="0"
     inkscape:window-maximized="0"
     inkscape:snap-object-midpoints="true"
     showguides="false">
    <inkscape:grid
       type="xygrid"
       id="grid239"
       originx="-33.765113"
       originy="-27.906479" />
  </sodipodi:namedview>
  <metadata
     id="metadata5">
    <rdf:RDF>
      <cc:Work
         rdf:about="">
        <dc:format>image/svg+xml</dc:format>
        <dc:type
           rdf:resource="http://purl.org/dc/dcmitype/StillImage" />
        <dc:title></dc:title>
      </cc:Work>
    </rdf:RDF>
  </metadata>
  <g
     inkscape:label="Plast 1"
     inkscape:groupmode="layer"
     id="layer1"
     transform="translate(-33.765114,-27.906479)">
    <path
       sodipodi:type="star"
       style="fill:#ffe6d5;fill-opacity:0.573529;stroke:#d48100;stroke-width:0.565;stroke-miterlimit:4;stroke-dasharray:none;stroke-opacity:1"
       id="path1088"
       sodipodi:sides="300"
       sodipodi:cx="90.147324"
       sodipodi:cy="84.288689"
       sodipodi:r1="56.25119"
       sodipodi:r2="56.248104"
       sodipodi:arg1="0.85196633"
       sodipodi:arg2="0.8624383"
       inkscape:flatsided="true"
       inkscape:rounded="0"
       inkscape:randomized="0"
       d="m 127.18899,126.62202 -0.89468,0.76646 -0.91055,0.74755 -0.92599,0.72832 -0.94105,0.70877 -0.95569,0.68891 -0.9699,0.66873 -0.98369,0.64828 -0.99706,0.62754 -1.00997,0.60652 -1.02246,0.58523 -1.03449,0.5637 -1.04607,0.5419 -1.05719,0.51988 -1.06785,0.49763 -1.07803,0.47515 -1.08774,0.45247 -1.09699,0.42959 -1.10573,0.40653 -1.11401,0.38327 -1.1218,0.35987 -1.12908,0.33629 -1.13588,0.31257 -1.14217,0.28872 -1.14798,0.26473 -1.15326,0.24064 -1.158048,0.21642 -1.162329,0.19213 -1.166097,0.16775 -1.169355,0.14329 -1.172099,0.11876 -1.174329,0.0942 -1.176044,0.0696 -1.177243,0.0449 -1.177926,0.0203 -1.178093,-0.004 -1.177742,-0.0291 -1.176874,-0.0537 -1.175492,-0.0784 -1.173592,-0.10297 -1.171179,-0.12752 -1.168251,-0.15202 -1.164811,-0.17645 -1.16086,-0.20081 -1.156401,-0.22508 -1.151433,-0.24924 -1.14596,-0.27331 -1.139986,-0.29724 -1.133511,-0.32105 -1.126539,-0.34472 -1.119072,-0.36824 -1.111115,-0.39159 -1.10267,-0.41478 -1.093743,-0.43777 -1.084334,-0.46059 -1.074451,-0.4832 -1.064095,-0.50559 -1.053274,-0.52776 -1.041991,-0.54971 -1.030249,-0.5714 -1.018058,-0.59286 -1.005417,-0.61405 -0.992338,-0.63497 -0.978823,-0.65561 -0.964877,-0.67597 -0.95051,-0.69603 -0.935724,-0.71578 -0.920529,-0.73522 -0.90493,-0.75433 -0.888934,-0.77312 -0.872548,-0.79157 -0.855779,-0.80967 -0.838636,-0.82741 -0.821123,-0.8448 -0.803251,-0.8618 -0.785026,-0.87844 -0.766458,-0.89469 -0.747553,-0.91054 -0.72832,-0.926 -0.708767,-0.94105 -0.688904,-0.95568 -0.668739,-0.9699 -0.64828,-0.9837 -0.627537,-0.99705 -0.606519,-1.00998 -0.585234,-1.02246 -0.563693,-1.03449 -0.541905,-1.04607 -0.519879,-1.05719 -0.497624,-1.06784 -0.475152,-1.07803 -0.452472,-1.08775 -0.429592,-1.09698 -0.406524,-1.10574 -0.383279,-1.11401 -0.359864,-1.12179 -0.336292,-1.129086 -0.312573,-1.135878 -0.288716,-1.142175 -0.264733,-1.147971 -0.240634,-1.153263 -0.216428,-1.15805 -0.192129,-1.162329 -0.167745,-1.166097 -0.143287,-1.169355 -0.118767,-1.172099 -0.09419,-1.174329 -0.06958,-1.176044 -0.04493,-1.177243 -0.02027,-1.177926 0.0044,-1.178093 0.02907,-1.177741 0.05373,-1.176875 0.07837,-1.175492 0.102967,-1.173592 0.127522,-1.171178 0.152021,-1.168252 0.176454,-1.164811 0.200809,-1.16086 0.225076,-1.156401 0.249245,-1.151433 0.273304,-1.14596 0.297243,-1.139986 0.321052,-1.133511 0.34472,-1.126539 0.368237,-1.119072 0.391592,-1.111115 0.414776,-1.10267 0.437777,-1.093743 0.460587,-1.084334 0.483195,-1.074451 0.50559,-1.064095 0.527764,-1.053274 0.549706,-1.041991 0.571408,-1.030249 0.592858,-1.018057 0.614049,-1.005418 0.63497,-0.992338 0.655613,-0.978822 0.675967,-0.964878 0.696027,-0.95051 0.71578,-0.935724 0.735219,-0.920529 0.754336,-0.90493 0.773122,-0.888934 0.791568,-0.872548 0.809669,-0.855779 0.827413,-0.838635 0.844795,-0.821124 0.861805,-0.803251 0.878439,-0.785026 0.894686,-0.766458 0.910542,-0.747553 0.925997,-0.72832 0.941047,-0.708767 0.955684,-0.688904 0.969902,-0.668739 0.983694,-0.64828 0.997055,-0.627537 1.009979,-0.606519 1.022458,-0.585234 1.034491,-0.563693 1.046069,-0.541905 1.057189,-0.519878 1.067844,-0.497625 1.078031,-0.475152 1.087746,-0.452472 1.096983,-0.429592 1.105739,-0.406524 1.11401,-0.383278 1.121793,-0.359865 1.129083,-0.336292 1.135878,-0.312573 1.142175,-0.288716 1.147971,-0.264733 1.153264,-0.240634 1.15805,-0.216428 1.162328,-0.192129 1.166097,-0.167745 1.169355,-0.143287 1.172099,-0.118767 1.174329,-0.09419 1.176044,-0.06958 1.177243,-0.04494 1.177926,-0.02027 1.178093,0.0044 1.177742,0.02907 1.176874,0.05373 1.175492,0.07837 1.173592,0.102967 1.171179,0.127522 1.168251,0.152021 1.164811,0.176454 1.160859,0.200809 1.1564,0.225076 1.15143,0.249245 1.14597,0.273304 1.13998,0.297243 1.13351,0.321052 1.12654,0.34472 1.11907,0.368237 1.11112,0.391592 1.10267,0.414776 1.09374,0.437777 1.08434,0.460587 1.07445,0.483195 1.06409,0.50559 1.05328,0.527764 1.04199,0.549706 1.03025,0.571408 1.01805,0.592858 1.00542,0.614049 0.99234,0.63497 0.97882,0.655613 0.96488,0.675967 0.95051,0.696027 0.93572,0.71578 0.92053,0.735219 0.90493,0.754336 0.88894,0.773122 0.87254,0.791569 0.85578,0.809668 0.83864,0.827413 0.82112,0.844795 0.80325,0.861805 0.78503,0.878439 0.76646,0.894686 0.74755,0.910542 0.72832,0.925997 0.70877,0.941047 0.6889,0.955684 0.66874,0.969902 0.64828,0.983694 0.62754,0.997055 0.60652,1.009979 0.58523,1.022458 0.56369,1.034491 0.54191,1.046069 0.51988,1.057189 0.49762,1.067844 0.47515,1.078031 0.45247,1.087746 0.4296,1.096983 0.40652,1.105739 0.38328,1.11401 0.35986,1.121793 0.3363,1.129083 0.31257,1.135878 0.28871,1.142175 0.26474,1.147971 0.24063,1.153264 0.21643,1.15805 0.19213,1.162328 0.16774,1.166098 0.14329,1.169354 0.11877,1.172099 0.0942,1.174329 0.0696,1.176044 0.0449,1.177243 0.0203,1.177927 -0.004,1.178092 -0.0291,1.177742 -0.0537,1.176875 -0.0784,1.175491 -0.10297,1.173592 -0.12752,1.171179 -0.15202,1.168251 -0.17646,1.164811 -0.20081,1.16086 -0.22507,1.156401 -0.24925,1.151433 -0.2733,1.145961 -0.29724,1.139986 -0.32106,1.133513 -0.34472,1.12654 -0.36823,1.11907 -0.3916,1.11111 -0.41477,1.10267 -0.43778,1.09375 -0.46059,1.08433 -0.48319,1.07445 -0.50559,1.0641 -0.52776,1.05327 -0.54971,1.04199 -0.57141,1.03025 -0.59286,1.01806 -0.61405,1.00542 -0.63497,0.99233 -0.65561,0.97883 -0.67597,0.96487 -0.69602,0.95051 -0.71578,0.93573 -0.73522,0.92053 -0.75434,0.90493 -0.77312,0.88893 -0.79157,0.87255 -0.80967,0.85578 -0.82741,0.83863 -0.84479,0.82113 -0.86181,0.80325 z"
       transform="matrix(1.002406,0,0,0.97869362,23.64557,1.8056296)" />
    <path
       style="fill:none;stroke:#000000;stroke-width:0.284617px;stroke-linecap:butt;stroke-linejoin:miter;stroke-opacity:1"
       d="m 113.97341,84.311159 c 6.67518,-14.1435 13.35039,-28.287083 17.32554,-36.522236 3.97514,-8.235154 5.25016,-10.561764 6.52523,-12.888474"
       id="path1092"
       inkscape:path-effect="#path-effect1094"
       inkscape:original-d="m 113.97341,84.311159 c 6.67554,-14.143328 13.35075,-28.286914 20.02565,-42.430757 1.27538,-2.326441 2.55041,-4.653045 3.82512,-6.979953" />
    <path
       style="fill:none;stroke:#000000;stroke-width:0.497804px;stroke-linecap:butt;stroke-linejoin:miter;stroke-opacity:1"
       d="M 113.90286,84.790817 C 101.1863,93.639383 88.469553,102.48808 75.752601,111.33692"
       id="path1104"
       inkscape:path-effect="#path-effect1106"
       inkscape:original-d="M 113.90286,84.790817 C 101.18582,93.638692 88.469073,102.48739 75.752601,111.33692" />
    <text
       xml:space="preserve"
       id="text1116"
       style="font-style:normal;font-weight:normal;font-size:10.5833px;line-height:1.25;font-family:sans-serif;white-space:pre;shape-inside:url(#rect1118);fill:#000000;fill-opacity:1;stroke:none;" />
    <text
       xml:space="preserve"
       style="font-style:italic;font-variant:normal;font-weight:normal;font-stretch:normal;font-size:14.9299px;line-height:1.25;font-family:Caladea;-inkscape-font-specification:'Caladea, Italic';font-variant-ligatures:normal;font-variant-caps:normal;font-variant-numeric:normal;font-variant-east-asian:normal;fill:#000000;fill-opacity:1;stroke:none;stroke-width:0.373247"
       x="119.9361"
       y="47.392601"
       id="text1124"
       transform="scale(1.0018069,0.99819638)"><tspan
         sodipodi:role="line"
         id="tspan1128"
         x="119.9361"
         y="47.392601"
         style="stroke-width:0.373247">r</tspan></text>
    <text
       xml:space="preserve"
       style="font-style:italic;font-variant:normal;font-weight:normal;font-stretch:normal;font-size:7.46495px;line-height:1.25;font-family:Caladea;-inkscape-font-specification:'Caladea, Italic';font-variant-ligatures:normal;font-variant-caps:normal;font-variant-numeric:normal;font-variant-east-asian:normal;letter-spacing:0px;fill:#000000;fill-opacity:1;stroke:none;stroke-width:0.373247"
       x="122.46885"
       y="50.791828"
       id="text1132"
       transform="scale(1.0018069,0.99819638)"><tspan
         sodipodi:role="line"
         id="tspan1130"
         x="122.46885"
         y="50.791828"
         style="font-style:italic;font-variant:normal;font-weight:normal;font-stretch:normal;font-size:7.46495px;font-family:Caladea;-inkscape-font-specification:'Caladea, Italic';font-variant-ligatures:normal;font-variant-caps:normal;font-variant-numeric:normal;font-variant-east-asian:normal;stroke-width:0.373247">a</tspan></text>
    <text
       xml:space="preserve"
       style="font-style:italic;font-variant:normal;font-weight:normal;font-stretch:normal;font-size:14.9299px;line-height:1.25;font-family:Caladea;-inkscape-font-specification:'Caladea, Italic';font-variant-ligatures:normal;font-variant-caps:normal;font-variant-numeric:normal;font-variant-east-asian:normal;letter-spacing:0px;fill:#000000;fill-opacity:1;stroke:none;stroke-width:0.373247"
       x="84.533203"
       y="93.998215"
       id="text1136"
       transform="scale(1.0018069,0.99819638)"><tspan
         sodipodi:role="line"
         id="tspan1134"
         x="84.533203"
         y="93.998215"
         style="font-style:italic;font-variant:normal;font-weight:normal;font-stretch:normal;font-size:14.9299px;font-family:Caladea;-inkscape-font-specification:'Caladea, Italic';font-variant-ligatures:normal;font-variant-caps:normal;font-variant-numeric:normal;font-variant-east-asian:normal;stroke-width:0.373247">R</tspan></text>
    <path
       sodipodi:type="star"
       style="fill:#05001f;fill-opacity:0.791165;stroke:#030000;stroke-width:0.264999;stroke-miterlimit:4;stroke-dasharray:none;stroke-opacity:1"
       id="path1138"
       sodipodi:sides="3"
       sodipodi:cx="119.45022"
       sodipodi:cy="77.16391"
       sodipodi:r1="1.9808993"
       sodipodi:r2="0.99044967"
       sodipodi:arg1="-0.32032476"
       sodipodi:arg2="0.72687279"
       inkscape:flatsided="true"
       inkscape:rounded="0"
       inkscape:randomized="0"
       d="m 121.33036,76.540175 -2.28004,2.563849 -1.08034,-3.256493 z"
       inkscape:transform-center-x="1.9294459"
       inkscape:transform-center-y="0.81689965"
       transform="matrix(1.1272865,0.75374763,-1.329678,1.2710222,43.70114,-76.775449)" />
    <use
       id="use2739"
       inkscape:spray-origin="#path84-5"
       xlink:href="#path84-5"
       x="0"
       y="0"
       width="100%"
       height="100%"
       transform="translate(36.977082,-23.265103)" />
    <ellipse
       style="fill:#55b0ff;fill-opacity:1;stroke:#0b49cf;stroke-width:0.514906;stroke-miterlimit:4;stroke-dasharray:none;stroke-opacity:1"
       id="path84-5"
       cx="114.00979"
       cy="84.298431"
       rx="7.4784389"
       ry="7.7176123" />
    <text
       xml:space="preserve"
       style="font-style:italic;font-variant:normal;font-weight:normal;font-stretch:normal;font-size:9.95449px;line-height:1.25;font-family:Caladea;-inkscape-font-specification:'Caladea, Italic';font-variant-ligatures:normal;font-variant-caps:normal;font-variant-numeric:normal;font-variant-east-asian:normal;letter-spacing:0px;fill:#000000;fill-opacity:1;stroke:none;stroke-width:0.497724"
       x="74.991684"
       y="116.71449"
       id="text1132-1"
       transform="scale(1.2439107,0.80391623)"><tspan
         sodipodi:role="line"
         id="tspan1130-5"
         x="74.991684"
         y="116.71449"
         style="font-style:italic;font-variant:normal;font-weight:normal;font-stretch:normal;font-size:9.95449px;font-family:Caladea;-inkscape-font-specification:'Caladea, Italic';font-variant-ligatures:normal;font-variant-caps:normal;font-variant-numeric:normal;font-variant-east-asian:normal;stroke-width:0.497724">a</tspan></text>
  </g>
</svg>
